<svg xmlns="http://www.w3.org/2000/svg" width="90.523" height="88.51" viewBox="0 0 90.523 88.51">
  <g id="AfterEffect" transform="translate(5 5)">
    <g id="Layer_1" data-name="Layer 1" transform="translate(0 0)">
      <g id="Layer_2" data-name="Layer 2">
        <g id="Surfaces">
          <g id="Video_Audio_Surface" data-name="Video Audio Surface">
            <g id="Outline_no_shadow" data-name="Outline no shadow">
              <path id="Path_160" data-name="Path 160" d="M14.259,0h52A14.246,14.246,0,0,1,80.523,14.259V64.251A14.246,14.246,0,0,1,66.264,78.51h-52A14.246,14.246,0,0,1,0,64.251V14.259A14.246,14.246,0,0,1,14.259,0Z" transform="translate(0 0)" fill="#00005b" stroke="#060d20" stroke-width="10"/>
            </g>
          </g>
        </g>
        <g id="Outlined_Mnemonics_Logos" data-name="Outlined Mnemonics Logos" transform="translate(9.962 20.198)">
          <g id="Ae">
            <path id="Path_161" data-name="Path 161" d="M52.072,86.974H39.591l-2.55,7.918a.587.587,0,0,1-.637.47H30.1c-.369,0-.47-.2-.369-.6l10.8-30.968c.1-.336.2-.637.336-1.04a11.72,11.72,0,0,0,.2-2.181.336.336,0,0,1,.268-.369h8.69c.235,0,.4.1.436.268l12.246,34.39c.1.369,0,.537-.336.537H55.36a.507.507,0,0,1-.537-.369ZM41.537,80.3h8.522c-.2-.7-.47-1.543-.772-2.416S48.684,76,48.382,75s-.637-2.047-.973-3.087-.637-2.013-.906-2.986-.5-1.812-.738-2.617H45.7a41.2,41.2,0,0,1-1.141,4.328c-.5,1.61-1.007,3.288-1.543,4.966C42.577,77.311,42.041,78.888,41.537,80.3Z" transform="translate(-29.69 -60.2)" fill="#99f"/>
            <path id="Path_162" data-name="Path 162" d="M151.318,99.762H140.683a7.381,7.381,0,0,0,1.04,2.986,5.321,5.321,0,0,0,2.449,2.013,10.434,10.434,0,0,0,4.295.839,20.181,20.181,0,0,0,3.489-.369,12.6,12.6,0,0,0,2.986-.772c.168-.134.268-.067.268.268v5.133a1.677,1.677,0,0,1-.067.4.785.785,0,0,1-.235.235,14.353,14.353,0,0,1-3.355,1.007,22.664,22.664,0,0,1-4.764.4,15.9,15.9,0,0,1-6.442-1.174,11.3,11.3,0,0,1-4.227-3.187,12.313,12.313,0,0,1-2.315-4.4,17.383,17.383,0,0,1,.134-10.233,13.692,13.692,0,0,1,2.516-4.6,12.159,12.159,0,0,1,4.06-3.187,12.671,12.671,0,0,1,5.6-1.04,12.119,12.119,0,0,1,5.2,1.04,9.24,9.24,0,0,1,3.523,2.684,12.283,12.283,0,0,1,2.013,3.825,13.2,13.2,0,0,1,.637,4.093c0,.805-.034,1.51-.067,2.147s-.1,1.107-.134,1.409a.5.5,0,0,1-.47.436c-.2,0-.57.034-1.107.067a15.882,15.882,0,0,1-1.946.1C153,99.9,152.191,99.762,151.318,99.762Zm-10.636-4.9h7.079c.872,0,1.51,0,1.912-.034a1.641,1.641,0,0,0,.772-.268v-.336a3.852,3.852,0,0,0-.2-1.241,4.442,4.442,0,0,0-4.362-3.087,4.724,4.724,0,0,0-4.462,2.55A6.955,6.955,0,0,0,140.683,94.864Z" transform="translate(-98.405 -76.075)" fill="#99f"/>
          </g>
        </g>
      </g>
    </g>
  </g>
</svg>
