<svg xmlns="http://www.w3.org/2000/svg" width="90.523" height="88.51" viewBox="0 0 90.523 88.51">
  <g id="Animate" transform="translate(5 5)">
    <g id="Layer_1" data-name="Layer 1" transform="translate(0 0)">
      <g id="Layer_2" data-name="Layer 2">
        <g id="Surfaces">
          <g id="Video_Audio_Surface" data-name="Video Audio Surface">
            <g id="Outline_no_shadow" data-name="Outline no shadow">
              <path id="Path_157" data-name="Path 157" d="M14.259,0h52A14.246,14.246,0,0,1,80.523,14.259V64.251A14.246,14.246,0,0,1,66.264,78.51h-52A14.246,14.246,0,0,1,0,64.251V14.259A14.246,14.246,0,0,1,14.259,0Z" transform="translate(0 0)" fill="#00005b" stroke="#060d20" stroke-width="10"/>
            </g>
          </g>
        </g>
        <g id="Outlined_Mnemonics_Logos" data-name="Outlined Mnemonics Logos" transform="translate(10.129 20.164)">
          <g id="An">
            <path id="Path_158" data-name="Path 158" d="M52.606,86.908H40.158l-2.55,7.885a.587.587,0,0,1-.637.47H30.6c-.369,0-.47-.2-.369-.6L41.064,63.69c.1-.336.2-.6.336-1.04a11.72,11.72,0,0,0,.2-2.181.336.336,0,0,1,.268-.369h8.723c.268,0,.4.1.436.268L63.242,94.691c.1.369,0,.537-.336.537H55.894a.507.507,0,0,1-.537-.369ZM42.1,80.231h8.522c-.2-.7-.47-1.543-.772-2.416s-.6-1.879-.906-2.885-.637-2.047-.973-3.087-.637-2.013-.906-2.986-.5-1.812-.738-2.617h-.067a41.194,41.194,0,0,1-1.141,4.328c-.5,1.61-1.007,3.288-1.543,4.966C43.111,77.245,42.608,78.822,42.1,80.231Z" transform="translate(-30.19 -60.1)" fill="#99f"/>
            <path id="Path_159" data-name="Path 159" d="M139.564,110.507V90.577c0-.6,0-1.309-.034-2.047s-.034-1.476-.067-2.147-.067-1.309-.1-1.711a.336.336,0,0,1,.067-.336.567.567,0,0,1,.336-.1h5.4a1.392,1.392,0,0,1,.537.1.52.52,0,0,1,.268.369c.067.2.168.47.235.738a6.406,6.406,0,0,1,.2,1.107,11.146,11.146,0,0,1,3.556-2.08,12.874,12.874,0,0,1,4.06-.671,10.009,10.009,0,0,1,3.154.5,8.052,8.052,0,0,1,5.1,4.966,15.226,15.226,0,0,1,.738,5.368v15.87c0,.336-.134.47-.436.47l-6.308.067a.463.463,0,0,1-.537-.4V95.476a7.861,7.861,0,0,0-.637-2.919,3.691,3.691,0,0,0-3.657-2.281,6.613,6.613,0,0,0-2.55.47,7.046,7.046,0,0,0-2.013,1.275v18.52c0,.336-.134.47-.436.47h-6.375a.416.416,0,0,1-.47-.369C139.53,110.574,139.53,110.54,139.564,110.507Z" transform="translate(-102.721 -75.848)" fill="#99f"/>
          </g>
        </g>
      </g>
    </g>
  </g>
</svg>
