<svg xmlns="http://www.w3.org/2000/svg" width="90.523" height="88.51" viewBox="0 0 90.523 88.51">
  <g id="Illustrator" transform="translate(5 5)">
    <g id="Layer_1" data-name="Layer 1" transform="translate(0 0)">
      <g id="Layer_2" data-name="Layer 2">
        <g id="Surfaces">
          <g id="Drawing_Surface" data-name="Drawing Surface">
            <g id="Outline_no_shadow" data-name="Outline no shadow">
              <path id="Path_154" data-name="Path 154" d="M14.259,0h52A14.246,14.246,0,0,1,80.523,14.259V64.251A14.246,14.246,0,0,1,66.264,78.51h-52A14.246,14.246,0,0,1,0,64.251V14.259A14.246,14.246,0,0,1,14.259,0Z" transform="translate(0 0)" fill="#300" stroke="#060d20" stroke-width="10"/>
            </g>
          </g>
        </g>
        <g id="Outlined_Mnemonics_Logos" data-name="Outlined Mnemonics Logos" transform="translate(16.638 17.413)">
          <g id="Ai">
            <path id="Path_155" data-name="Path 155" d="M71.972,86.909H59.491l-2.55,7.885a.587.587,0,0,1-.637.47H50c-.369,0-.47-.2-.369-.6l10.8-31.1c.1-.336.2-.7.336-1.107a11.719,11.719,0,0,0,.2-2.181.336.336,0,0,1,.268-.369h8.69c.268,0,.4.1.436.268L82.608,94.726c.1.369,0,.537-.336.537H75.26a.507.507,0,0,1-.537-.369ZM61.437,80.1h8.522c-.2-.7-.47-1.543-.772-2.416s-.6-1.879-.906-2.885-.637-2.047-.973-3.087-.637-2.013-.906-2.986-.5-1.812-.738-2.617H65.6a41.2,41.2,0,0,1-1.141,4.328c-.5,1.61-1.007,3.288-1.543,4.966-.47,1.711-.973,3.288-1.476,4.7Z" transform="translate(-49.59 -57.216)" fill="#ff9a00"/>
            <path id="Path_156" data-name="Path 156" d="M161.622,60.321a4.154,4.154,0,0,1-2.986-1.174A4.362,4.362,0,0,1,157.5,56.06a3.949,3.949,0,0,1,1.208-2.986,4.3,4.3,0,0,1,2.986-1.174,4.018,4.018,0,0,1,3.053,1.174,4.613,4.613,0,0,1-.067,6.073A3.946,3.946,0,0,1,161.622,60.321Zm-3.758,29.123V63.609c0-.336.134-.47.436-.47h6.643c.3,0,.436.168.436.47V89.444c0,.369-.134.537-.436.537h-6.576a.47.47,0,0,1-.5-.537Z" transform="translate(-121.29 -51.9)" fill="#ff9a00"/>
          </g>
        </g>
      </g>
    </g>
  </g>
</svg>
