<svg xmlns="http://www.w3.org/2000/svg" width="90.523" height="88.51" viewBox="0 0 90.523 88.51">
  <g id="InDesign" transform="translate(5 5)">
    <g id="Layer_1" data-name="Layer 1" transform="translate(0 0)">
      <g id="Surfaces">
        <g id="Publishing_Surface" data-name="Publishing Surface">
          <g id="Outline_no_shadow" data-name="Outline no shadow">
            <path id="Path_151" data-name="Path 151" d="M14.259,0h52A14.246,14.246,0,0,1,80.523,14.259V64.251A14.246,14.246,0,0,1,66.264,78.51h-52A14.246,14.246,0,0,1,0,64.251V14.259A14.246,14.246,0,0,1,14.259,0Z" transform="translate(0 0)" fill="#49021f" stroke="#060d20" stroke-width="10"/>
          </g>
        </g>
      </g>
      <g id="Outlined_Mnemonics_Logos" data-name="Outlined Mnemonics Logos" transform="translate(21.775 17.209)">
        <g id="Id">
          <path id="Path_152" data-name="Path 152" d="M72.382,60.327V94.751c0,.369-.168.537-.47.537H65.336c-.3,0-.436-.168-.436-.537V60.327c0-.3.168-.436.47-.436h6.543a.379.379,0,0,1,.436.336A.124.124,0,0,1,72.382,60.327Z" transform="translate(-64.9 -57.003)" fill="#f36"/>
          <path id="Path_153" data-name="Path 153" d="M116.823,90.113a16.682,16.682,0,0,1-7.214-1.51,11.7,11.7,0,0,1-5.066-4.563,14.518,14.518,0,0,1-1.845-7.65,13.779,13.779,0,0,1,1.845-7.079,13.934,13.934,0,0,1,5.335-5.2,17.162,17.162,0,0,1,8.489-1.946,5.993,5.993,0,0,1,.7.034c.3.034.637.034,1.04.067v-10.6c0-.235.1-.369.336-.369h6.811a.3.3,0,0,1,.336.235V83.537c0,.6.034,1.275.067,2.013s.1,1.376.134,1.946a.544.544,0,0,1-.336.537,25.624,25.624,0,0,1-5.469,1.61,29.3,29.3,0,0,1-5.167.47Zm3.288-6.71V68.641a8.582,8.582,0,0,0-.906-.168c-.369-.034-.738-.067-1.107-.067a8.27,8.27,0,0,0-3.791.872,7.522,7.522,0,0,0-2.852,2.483,7.437,7.437,0,0,0-1.107,4.261,9.351,9.351,0,0,0,.57,3.456,6.556,6.556,0,0,0,1.51,2.382,5.8,5.8,0,0,0,2.282,1.342,8.784,8.784,0,0,0,2.785.436c.5,0,.973-.034,1.409-.067A2.859,2.859,0,0,0,120.111,83.4Z" transform="translate(-90.015 -51.292)" fill="#f36"/>
        </g>
      </g>
    </g>
  </g>
</svg>
