<svg xmlns="http://www.w3.org/2000/svg" width="90.523" height="88.51" viewBox="0 0 90.523 88.51">
  <g id="Photoshop" transform="translate(5 5)">
    <g id="Layer_1" data-name="Layer 1" transform="translate(0 0)">
      <g id="Layer_2" data-name="Layer 2">
        <g id="Surfaces">
          <g id="Photo_Surface" data-name="Photo Surface">
            <g id="Outline_no_shadow" data-name="Outline no shadow">
              <path id="Path_148" data-name="Path 148" d="M14.259,0h52A14.246,14.246,0,0,1,80.523,14.259V64.251A14.246,14.246,0,0,1,66.264,78.51h-52A14.246,14.246,0,0,1,0,64.251V14.259A14.246,14.246,0,0,1,14.259,0Z" transform="translate(0 0)" fill="#001e36" stroke="#060d20" stroke-width="10"/>
            </g>
          </g>
        </g>
        <g id="Outlined_Mnemonics_Logos" data-name="Outlined Mnemonics Logos" transform="translate(18.118 19.963)">
          <g id="Ps">
            <path id="Path_149" data-name="Path 149" d="M54,94.595V60.07c0-.235.1-.369.336-.369.57,0,1.107,0,1.879-.034s1.644-.034,2.55-.067,1.879-.034,2.919-.067,2.047-.034,3.053-.034a19.728,19.728,0,0,1,6.912,1.04,11.981,11.981,0,0,1,4.5,2.751,10.683,10.683,0,0,1,2.449,3.825,12.843,12.843,0,0,1,.772,4.362,12,12,0,0,1-2.013,7.146,11.5,11.5,0,0,1-5.4,4.093A21.745,21.745,0,0,1,64.4,83.858c-.805,0-1.342,0-1.678-.034s-.805-.034-1.443-.034v10.77a.416.416,0,0,1-.369.47H54.4C54.134,95.031,54,94.9,54,94.595Zm7.314-28.418V77.45c.47.034.906.067,1.309.067H64.4a12.531,12.531,0,0,0,3.858-.6,5.771,5.771,0,0,0,2.751-1.778,5.185,5.185,0,0,0,1.04-3.456,5.523,5.523,0,0,0-.772-2.986,4.865,4.865,0,0,0-2.349-1.912,9.844,9.844,0,0,0-3.959-.671c-.872,0-1.644,0-2.281.034a7.683,7.683,0,0,0-1.376.034Z" transform="translate(-54 -59.5)" fill="#31a8ff"/>
            <path id="Path_150" data-name="Path 150" d="M157.644,91.883a11.874,11.874,0,0,0-3.221-1.141,17.685,17.685,0,0,0-3.758-.436,6.754,6.754,0,0,0-2.013.235,1.721,1.721,0,0,0-1.04.671,1.778,1.778,0,0,0-.268.906,1.493,1.493,0,0,0,.336.872,3.785,3.785,0,0,0,1.141.906c.772.4,1.577.772,2.382,1.107a24.3,24.3,0,0,1,5.167,2.449,7.807,7.807,0,0,1,2.651,2.785,7.244,7.244,0,0,1,.772,3.456,7.807,7.807,0,0,1-1.309,4.462,8.408,8.408,0,0,1-3.758,2.986,15.373,15.373,0,0,1-6.073,1.074,23.11,23.11,0,0,1-4.563-.436,13.535,13.535,0,0,1-3.422-1.074.671.671,0,0,1-.369-.637V104.23a.366.366,0,0,1,.134-.3.255.255,0,0,1,.3.034,14.363,14.363,0,0,0,4.16,1.644,15.618,15.618,0,0,0,3.959.5,6.4,6.4,0,0,0,2.785-.47,1.56,1.56,0,0,0,.906-1.409,1.778,1.778,0,0,0-.805-1.342,14.229,14.229,0,0,0-3.288-1.577,20.527,20.527,0,0,1-4.764-2.416,8.686,8.686,0,0,1-2.55-2.852,7.2,7.2,0,0,1-.772-3.422,7.891,7.891,0,0,1,1.141-4.06,8.27,8.27,0,0,1,3.523-3.087,13.011,13.011,0,0,1,5.939-1.174,28.925,28.925,0,0,1,4.16.3,11.807,11.807,0,0,1,2.885.772.59.59,0,0,1,.336.3,1.677,1.677,0,0,1,.067.4v5.469a.413.413,0,0,1-.168.336A.892.892,0,0,1,157.644,91.883Z" transform="translate(-111.343 -75.979)" fill="#31a8ff"/>
          </g>
        </g>
      </g>
    </g>
  </g>
</svg>
