<svg xmlns="http://www.w3.org/2000/svg" width="90.523" height="88.51" viewBox="0 0 90.523 88.51">
  <g id="Primere" transform="translate(5 5)">
    <g id="Layer_1" data-name="Layer 1" transform="translate(0 0)">
      <g id="Layer_2" data-name="Layer 2">
        <g id="Surfaces">
          <g id="Video_Audio_Surface" data-name="Video Audio Surface">
            <g id="Outline_no_shadow" data-name="Outline no shadow">
              <path id="Path_163" data-name="Path 163" d="M14.259,0h52A14.246,14.246,0,0,1,80.523,14.259V64.251A14.246,14.246,0,0,1,66.264,78.51h-52A14.246,14.246,0,0,1,0,64.251V14.259A14.246,14.246,0,0,1,14.259,0Z" transform="translate(0 0)" fill="#00005b" stroke="#060d20" stroke-width="10"/>
            </g>
          </g>
        </g>
        <g id="Outlined_Mnemonics_Logos" data-name="Outlined Mnemonics Logos" transform="translate(19.124 19.963)">
          <g id="Pr">
            <path id="Path_164" data-name="Path 164" d="M57,94.595V60.07c0-.235.1-.369.336-.369.57,0,1.107,0,1.879-.034s1.644-.034,2.55-.067,1.879-.034,2.919-.067,2.047-.034,3.053-.034a19.728,19.728,0,0,1,6.912,1.04,11.981,11.981,0,0,1,4.5,2.751,10.683,10.683,0,0,1,2.449,3.825,12.844,12.844,0,0,1,.772,4.362,12,12,0,0,1-2.013,7.146,11.5,11.5,0,0,1-5.4,4.093A21.745,21.745,0,0,1,67.4,83.858c-.805,0-1.342,0-1.678-.034s-.805-.034-1.443-.034v10.77a.416.416,0,0,1-.369.47H57.4C57.134,95.031,57,94.9,57,94.595Zm7.314-28.418V77.45c.47.034.906.067,1.309.067H67.4a12.531,12.531,0,0,0,3.858-.6,5.771,5.771,0,0,0,2.751-1.778,5.185,5.185,0,0,0,1.04-3.456,5.523,5.523,0,0,0-.772-2.986,4.865,4.865,0,0,0-2.349-1.912,9.844,9.844,0,0,0-3.959-.671c-.872,0-1.644,0-2.281.034a7.683,7.683,0,0,0-1.376.034Z" transform="translate(-57 -59.5)" fill="#99f"/>
            <path id="Path_165" data-name="Path 165" d="M145.921,84.063h5.871a.755.755,0,0,1,.7.537,3.406,3.406,0,0,1,.2.839c.067.336.134.7.168,1.04s.067.772.067,1.208a12.488,12.488,0,0,1,3.59-2.885,10.4,10.4,0,0,1,5.1-1.309.416.416,0,0,1,.47.369v6.677c0,.268-.168.369-.537.369a14.588,14.588,0,0,0-3.624.336,13.806,13.806,0,0,0-2.818.906A5.217,5.217,0,0,0,153.4,93.39V110.5c0,.336-.134.47-.436.47h-6.61a.463.463,0,0,1-.537-.4V91.847c0-.805,0-1.644-.034-2.516s-.034-1.745-.067-2.617c0-.772-.067-1.51-.134-2.281a.309.309,0,0,1,.235-.369c0-.034.067-.034.1,0Z" transform="translate(-115.859 -75.44)" fill="#99f"/>
          </g>
        </g>
      </g>
    </g>
  </g>
</svg>
