<svg xmlns="http://www.w3.org/2000/svg" width="90.523" height="88.51" viewBox="0 0 90.523 88.51">
  <g id="XD" transform="translate(5 5)">
    <g id="Layer_1" data-name="Layer 1" transform="translate(0 0)">
      <g id="Layer_2" data-name="Layer 2">
        <g id="Surfaces">
          <g id="UI_UX_Surface" data-name="UI UX Surface">
            <g id="Outline_no_shadow" data-name="Outline no shadow">
              <path id="Path_145" data-name="Path 145" d="M14.259,0h52A14.246,14.246,0,0,1,80.523,14.259V64.251A14.246,14.246,0,0,1,66.264,78.51h-52A14.246,14.246,0,0,1,0,64.251V14.259A14.246,14.246,0,0,1,14.259,0Z" transform="translate(0 0)" fill="#470137" stroke="#060d20" stroke-width="10"/>
            </g>
          </g>
        </g>
        <g id="Outlined_Mnemonics_Logos" data-name="Outlined Mnemonics Logos" transform="translate(11.73 17.209)">
          <g id="Xd-2" data-name="Xd">
            <path id="Path_146" data-name="Path 146" d="M65.574,60.5,55.508,77.107,66.245,94.722a.577.577,0,0,1,.067.4c-.034.134-.168.034-.369.067H58.259c-.537,0-.906-.034-1.141-.369-.7-1.409-1.443-2.785-2.147-4.194S53.5,87.844,52.69,86.4s-1.61-2.885-2.416-4.362h-.067c-.7,1.443-1.476,2.885-2.248,4.328s-1.543,2.885-2.281,4.295-1.543,2.852-2.315,4.227c-.134.336-.4.369-.772.369H35.21c-.134,0-.235.067-.235-.1a.466.466,0,0,1,.067-.369L45.476,77.678,35.31,60.466c-.1-.134-.134-.268-.067-.336A.389.389,0,0,1,35.579,60h7.616a1.979,1.979,0,0,1,.47.067.953.953,0,0,1,.336.3c.637,1.443,1.376,2.885,2.147,4.328s1.577,2.852,2.416,4.261,1.543,2.818,2.248,4.261h.067c.7-1.476,1.443-2.919,2.181-4.328s1.51-2.818,2.281-4.227,1.51-2.852,2.248-4.227a.57.57,0,0,1,.2-.336.641.641,0,0,1,.436-.067h7.079a.309.309,0,0,1,.369.235C65.708,60.3,65.641,60.432,65.574,60.5Z" transform="translate(-34.962 -57.074)" fill="#ff61f6"/>
            <path id="Path_147" data-name="Path 147" d="M144.423,90.113a16.682,16.682,0,0,1-7.214-1.51,11.7,11.7,0,0,1-5.066-4.563,14.518,14.518,0,0,1-1.845-7.65,13.779,13.779,0,0,1,1.845-7.079,13.934,13.934,0,0,1,5.335-5.2,17.162,17.162,0,0,1,8.488-1.946,5.992,5.992,0,0,1,.7.034c.3.034.637.034,1.04.067v-10.6c0-.235.1-.369.336-.369h6.811a.3.3,0,0,1,.336.235V83.537c0,.6.034,1.275.067,2.013s.1,1.376.134,1.946a.544.544,0,0,1-.336.537,25.623,25.623,0,0,1-5.469,1.61,29.6,29.6,0,0,1-5.167.47Zm3.288-6.71V68.641a8.582,8.582,0,0,0-.906-.168c-.369-.034-.738-.067-1.107-.067a8.27,8.27,0,0,0-3.791.872,7.522,7.522,0,0,0-2.852,2.483,7.437,7.437,0,0,0-1.107,4.261,9.351,9.351,0,0,0,.57,3.456,6.556,6.556,0,0,0,1.51,2.382,5.8,5.8,0,0,0,2.281,1.342,8.783,8.783,0,0,0,2.785.436c.5,0,.973-.034,1.409-.067a2.936,2.936,0,0,0,1.208-.168Z" transform="translate(-98.31 -51.292)" fill="#ff61f6"/>
          </g>
        </g>
      </g>
    </g>
  </g>
</svg>
