<?xml version="1.0" encoding="utf-8"?>
<!-- Generator: Adobe Illustrator 25.2.3, SVG Export Plug-In . SVG Version: 6.00 Build 0)  -->
<svg version="1.1" id="Layer_1" xmlns="http://www.w3.org/2000/svg" xmlns:xlink="http://www.w3.org/1999/xlink" x="0px" y="0px"
	 viewBox="0 0 1920 1080" style="enable-background:new 0 0 1920 1080;" xml:space="preserve">
<style type="text/css">
	.st0{fill:#1A2642;}
	.st1{fill:none;stroke:#FFFFFF;stroke-width:0.2;stroke-miterlimit:10;}
	.st2{fill:#FFFFFF;}
	.st3{fill:#38455E;}
</style>
<rect class="st0" width="1920" height="1080"/>
<polyline class="st1" points="1198.8,257.1 1176.9,275.8 1225.6,310 1196.9,339.7 1204.6,385.3 1243.4,396.6 1247.9,413.8 "/>
<circle class="st2" cx="1247.9" cy="413.8" r="3.4"/>
<circle class="st2" cx="927.9" cy="947.8" r="3.4"/>
<circle class="st2" cx="859" cy="980" r="1.6"/>
<circle class="st2" cx="1205.2" cy="385.3" r="3"/>
<circle class="st2" cx="1196.9" cy="340.2" r="2.1"/>
<circle class="st2" cx="1225.2" cy="310.8" r="3.6"/>
<circle class="st2" cx="787.2" cy="959.8" r="3.6"/>
<circle class="st2" cx="1177.3" cy="275.9" r="1.8"/>
<circle class="st2" cx="1198.6" cy="257.1" r="2.7"/>
<circle class="st2" cx="1054.4" cy="410.6" r="4.2"/>
<circle class="st2" cx="967.4" cy="234.6" r="4.2"/>
<circle class="st2" cx="820.4" cy="156.6" r="4.2"/>
<circle class="st2" cx="888.9" cy="708.4" r="4.2"/>
<circle class="st2" cx="1805.9" cy="843.4" r="4.2"/>
<circle class="st2" cx="601.9" cy="558.4" r="4.2"/>
<circle class="st2" cx="804.9" cy="494.4" r="4.2"/>
<circle class="st2" cx="1808.9" cy="498.4" r="4.2"/>
<circle class="st2" cx="233.9" cy="708.4" r="4.2"/>
<circle class="st2" cx="1763.9" cy="335.4" r="4.2"/>
<circle class="st2" cx="1120.5" cy="542.9" r="4.2"/>
<circle class="st2" cx="782.5" cy="1015.9" r="4.2"/>
<circle class="st2" cx="1414.5" cy="881.9" r="4.2"/>
<circle class="st2" cx="299.5" cy="120.9" r="4.2"/>
<circle class="st2" cx="476.5" cy="738.9" r="4.2"/>
<circle class="st2" cx="1054.4" cy="645.5" r="4.2"/>
<circle class="st2" cx="1269.4" cy="761.5" r="4.2"/>
<circle class="st2" cx="602.4" cy="355.5" r="4.2"/>
<circle class="st2" cx="1352.1" cy="509.8" r="4.2"/>
<circle class="st2" cx="1348.1" cy="359.8" r="4.2"/>
<circle class="st2" cx="1472.1" cy="97.8" r="4.2"/>
<g>
	<circle class="st3" cx="1319.1" cy="609.1" r="7.8"/>
	<circle class="st2" cx="1319.1" cy="609.1" r="4.2"/>
</g>
<g>
	<circle class="st3" cx="1152.1" cy="847.1" r="7.8"/>
	<circle class="st2" cx="1152.1" cy="847.1" r="4.2"/>
</g>
<g>
	<circle class="st3" cx="992.1" cy="1028.1" r="7.8"/>
	<circle class="st2" cx="992.1" cy="1028.1" r="4.2"/>
</g>
<g>
	<circle class="st3" cx="370.1" cy="469.1" r="7.8"/>
	<circle class="st2" cx="370.1" cy="469.1" r="4.2"/>
</g>
<g>
	<circle class="st3" cx="851.1" cy="485.1" r="7.8"/>
	<circle class="st2" cx="851.1" cy="485.1" r="4.2"/>
</g>
<g>
	<circle class="st3" cx="1013.1" cy="106.1" r="7.8"/>
	<circle class="st2" cx="1013.1" cy="106.1" r="4.2"/>
</g>
<g>
	<circle class="st3" cx="200.1" cy="933.1" r="7.8"/>
	<circle class="st2" cx="200.1" cy="933.1" r="4.2"/>
</g>
<g>
	<circle class="st3" cx="55.1" cy="1036.1" r="7.8"/>
	<circle class="st2" cx="55.1" cy="1036.1" r="4.2"/>
</g>
<g>
	<circle class="st3" cx="176.1" cy="260.1" r="7.8"/>
	<circle class="st2" cx="176.1" cy="260.1" r="4.2"/>
</g>
<circle class="st2" cx="1669.1" cy="441.1" r="4.2"/>
<circle class="st2" cx="667.1" cy="367.1" r="4.2"/>
<circle class="st2" cx="1252.9" cy="576" r="4.2"/>
<circle class="st2" cx="1438.9" cy="465" r="4.2"/>
<circle class="st2" cx="612.9" cy="395" r="4.2"/>
<circle class="st2" cx="147.9" cy="445" r="4.2"/>
<circle class="st2" cx="1656.9" cy="798" r="4.2"/>
<circle class="st2" cx="195.9" cy="601" r="4.2"/>
<circle class="st2" cx="1759.9" cy="102" r="4.2"/>
<circle class="st2" cx="1271.1" cy="484.8" r="4.2"/>
<circle class="st2" cx="1115.8" cy="420.3" r="2.5"/>
<circle class="st2" cx="1533.8" cy="364.3" r="2.5"/>
<circle class="st2" cx="1442.8" cy="239.3" r="2.5"/>
<circle class="st2" cx="960.5" cy="673.2" r="2.5"/>
<circle class="st2" cx="697.5" cy="329.2" r="2.5"/>
<circle class="st2" cx="420.5" cy="755.2" r="2.5"/>
<circle class="st2" cx="519.5" cy="851.2" r="2.5"/>
<circle class="st2" cx="1501.5" cy="605.2" r="2.5"/>
<circle class="st2" cx="967.5" cy="878.2" r="2.5"/>
<circle class="st2" cx="1770.5" cy="702.2" r="2.5"/>
<circle class="st2" cx="1867.5" cy="639.2" r="2.5"/>
<circle class="st2" cx="606.5" cy="141.2" r="2.5"/>
<circle class="st2" cx="345.5" cy="304.2" r="2.5"/>
<circle class="st2" cx="123.5" cy="96.2" r="2.5"/>
<circle class="st2" cx="1602.5" cy="237.2" r="2.5"/>
<circle class="st2" cx="1686.5" cy="580.2" r="2.5"/>
<circle class="st2" cx="1808.5" cy="908.2" r="2.5"/>
<circle class="st2" cx="1569.5" cy="910.2" r="2.5"/>
<circle class="st2" cx="604.5" cy="502.2" r="2.5"/>
<circle class="st2" cx="1244.5" cy="985.2" r="2.5"/>
<circle class="st2" cx="1447.5" cy="985.2" r="2.5"/>
<circle class="st2" cx="873.5" cy="378.2" r="2.5"/>
<circle class="st2" cx="141.5" cy="764.2" r="2.5"/>
<circle class="st2" cx="432.5" cy="983.2" r="2.5"/>
<circle class="st2" cx="1051.9" cy="541.2" r="2.5"/>
<circle class="st2" cx="1672.9" cy="626.2" r="2.5"/>
<circle class="st2" cx="850.9" cy="121.2" r="2.5"/>
<circle class="st2" cx="1519.9" cy="757.2" r="2.5"/>
<circle class="st2" cx="179.9" cy="626.2" r="2.5"/>
<circle class="st2" cx="666.9" cy="670.2" r="2.5"/>
<circle class="st2" cx="1618.9" cy="93.2" r="2.5"/>
<circle class="st2" cx="1698.9" cy="997.2" r="2.5"/>
<circle class="st2" cx="684.9" cy="855.2" r="2.5"/>
<circle class="st2" cx="585.9" cy="1016.2" r="2.5"/>
<circle class="st2" cx="1384" cy="595.4" r="2.5"/>
<circle class="st2" cx="846" cy="192.4" r="2.5"/>
<circle class="st2" cx="430" cy="509.4" r="2.5"/>
<circle class="st2" cx="1880" cy="203.4" r="2.5"/>
<circle class="st2" cx="1386" cy="675.4" r="2.5"/>
<circle class="st2" cx="1266.9" cy="560.4" r="2.5"/>
<circle class="st2" cx="359.9" cy="491.4" r="2.5"/>
<circle class="st2" cx="1307.5" cy="458.8" r="2.5"/>
<circle class="st2" cx="1213.5" cy="434.4" r="2.5"/>
<circle class="st2" cx="1208.5" cy="125.4" r="2.5"/>
<circle class="st2" cx="1154.2" cy="318.9" r="2.5"/>
<circle class="st2" cx="1307.2" cy="205.9" r="2.5"/>
<polyline class="st1" points="517,190 439.9,208.4 523,253 396,274 450,370 506.4,329.1 518,375 "/>
<line class="st1" x1="551.1" y1="321.4" x2="506.4" y2="329.1"/>
<circle class="st2" cx="521.4" cy="252.9" r="4.6"/>
<circle class="st2" cx="800.4" cy="912.9" r="2.6"/>
<circle class="st2" cx="739.4" cy="904.9" r="4.6"/>
<circle class="st2" cx="396.4" cy="273.9" r="3.1"/>
<circle class="st2" cx="440.4" cy="207.9" r="2.1"/>
<circle class="st2" cx="855.4" cy="907.9" r="2.1"/>
<circle class="st2" cx="450.4" cy="369.9" r="3.6"/>
<circle class="st2" cx="517.4" cy="189.9" r="2.1"/>
<circle class="st2" cx="518.4" cy="374.9" r="3.1"/>
<circle class="st2" cx="762.4" cy="756.9" r="3.1"/>
<circle class="st2" cx="551.4" cy="320.9" r="2.1"/>
<polyline class="st1" points="687.4,855.2 753.4,847.6 738.2,905.7 800.7,912.7 786.7,959.7 858.8,980.7 928,948 855.3,907.7 "/>
</svg>
